<svg width="1220" height="1282" viewBox="0 0 1220 1282" fill="none" xmlns="http://www.w3.org/2000/svg">
<path d="M257.229 437.199L154.486 340.634L200.919 291.229C211.877 279.571 223.189 273.277 234.857 272.35C246.519 271.234 257.402 275.424 267.506 284.92C274.016 291.039 278.33 297.838 280.448 305.318C282.561 312.61 282.372 320.209 279.882 328.116C277.385 335.833 272.439 343.627 265.043 351.497L263.515 347.865L270.09 340.87C274.016 336.692 278.506 333.959 283.56 332.671C288.517 331.291 294.04 331.45 300.129 333.147L344.343 344.511L316.675 373.949L267.32 361.048C265.132 360.455 263.147 360.328 261.365 360.666C259.584 361.004 257.859 361.671 256.192 362.666C254.616 363.564 253.098 364.79 251.637 366.344L244.104 374.36L282.432 410.383L257.229 437.199ZM225.158 356.554L241.868 338.774C246.708 333.624 249.386 328.731 249.903 324.093C250.419 319.455 248.54 315.127 244.265 311.109C240.184 307.274 235.846 305.758 231.249 306.56C226.554 307.272 221.787 310.202 216.948 315.352L200.237 333.131L225.158 356.554Z" fill="#4A7D7F"/>
<path d="M389.647 313.706C379.217 319.641 369.156 322.989 359.464 323.749C349.821 324.327 341.059 322.409 333.178 317.996C325.298 313.583 318.752 306.799 313.543 297.644C308.531 288.837 306.058 280.043 306.123 271.261C306.238 262.298 308.601 254.049 313.212 246.516C317.873 238.801 324.549 232.471 333.24 227.525C341.932 222.579 350.428 220.122 358.73 220.153C367.032 220.185 374.776 222.605 381.961 227.413C389.197 232.04 395.353 238.815 400.431 247.739L404.289 254.518L343.103 289.337L334.793 274.736L373.383 252.776L371.887 256.618C368.326 250.36 364.356 246.483 359.976 244.987C355.53 243.375 350.874 243.954 346.007 246.724C342.414 248.768 339.78 251.418 338.104 254.673C336.478 257.746 335.892 261.3 336.348 265.336C336.804 269.373 338.417 273.824 341.187 278.691L342.077 280.256C345.176 285.702 348.436 289.677 351.854 292.18C355.389 294.618 359.299 295.692 363.582 295.401C367.8 294.996 372.459 293.342 377.558 290.44C381.961 287.934 386.176 284.692 390.202 280.714C394.277 276.553 397.444 272.143 399.701 267.484L418.923 283.469C416.3 289.103 412.329 294.661 407.011 300.143C401.692 305.624 395.904 310.145 389.647 313.706Z" fill="#4A7D7F"/>
<path d="M444.962 279.29L404.887 175.776L363.109 191.951L352.277 163.975L470.152 118.339L480.983 146.316L439.205 162.49L479.28 266.003L444.962 279.29Z" fill="#4A7D7F"/>
<path d="M505.811 259.274L488.263 119.371L523.587 114.94L531.029 174.275L527.854 174.673C530.249 168.057 534.15 162.73 539.556 158.693C545.094 154.639 551.634 152.139 559.175 151.193C566.981 150.214 573.588 150.93 578.997 153.343C584.389 155.623 588.74 159.78 592.05 165.815C595.344 171.718 597.588 179.432 598.783 188.957L606.026 246.705L570.703 251.135L563.634 194.777C563.136 190.808 562.275 187.691 561.05 185.426C559.809 183.028 558.196 181.416 556.211 180.59C554.358 179.748 552.109 179.492 549.463 179.824C545.891 180.272 542.881 181.456 540.435 183.375C537.971 185.162 536.186 187.536 535.079 190.497C534.105 193.441 533.858 196.832 534.339 200.668L541.134 254.844L505.811 259.274Z" fill="#4A7D7F"/>
<path d="M645.513 253.037C637.965 252.147 631.442 249.968 625.944 246.5C620.578 243.048 616.52 238.744 613.772 233.586C611.172 228.312 610.239 222.563 610.973 216.34C611.816 209.189 614.333 203.78 618.525 200.113C622.716 196.445 629.019 194.234 637.431 193.481C645.86 192.595 656.893 192.956 670.532 194.565L681.457 195.853L679.489 212.537L668.565 211.249C664.725 210.796 661.325 210.597 658.365 210.65C655.537 210.72 653.142 211.109 651.179 211.817C649.231 212.393 647.716 213.288 646.633 214.503C645.55 215.718 644.907 217.186 644.704 218.908C644.345 221.953 645.107 224.594 646.992 226.83C649.009 229.082 652.07 230.449 656.175 230.934C659.485 231.324 662.484 230.939 665.172 229.779C667.992 228.635 670.345 226.898 672.23 224.57C674.132 222.109 675.285 219.157 675.691 215.714L678.408 192.674C678.97 187.907 678.11 184.382 675.828 182.099C673.679 179.832 669.625 178.347 663.666 177.644C658.635 177.051 652.98 177.19 646.701 178.06C640.423 178.931 634.175 180.678 627.958 183.302L621.76 159.009C625.484 157.031 629.971 155.412 635.222 154.152C640.605 152.907 646.198 152.157 652.001 151.901C657.952 151.529 663.377 151.631 668.277 152.209C679.135 153.489 687.886 156.132 694.529 160.138C701.32 164.027 706.055 169.418 708.732 176.312C711.558 183.09 712.378 191.511 711.191 201.574L704.563 257.785L671.592 253.897L673.77 235.425L674.961 235.565C673.8 239.725 671.848 243.187 669.105 245.951C666.362 248.716 662.97 250.732 658.926 252.001C654.883 253.269 650.412 253.615 645.513 253.037Z" fill="#4A7D7F"/>
<path d="M753.33 152.129L763.708 121.648L799.112 133.702L788.734 164.183L753.33 152.129ZM717.083 261.694L748.798 168.544L782.498 180.018L750.784 273.167L717.083 261.694Z" fill="#4A7D7F"/>
<path d="M771.093 279.261L841.964 157.367L900.577 191.445C914.409 199.487 923.095 209.086 926.633 220.243C930.354 231.352 928.729 242.9 921.759 254.888C917.269 262.611 911.619 268.349 904.811 272.101C898.184 275.806 890.739 277.338 882.474 276.697C874.392 276.008 865.683 272.949 856.346 267.521L859.539 265.213L867.838 270.038C872.794 272.92 876.471 276.677 878.867 281.309C881.331 285.826 882.423 291.242 882.144 297.558L881.058 343.196L846.132 322.89L847.556 271.896C847.639 269.631 847.315 267.668 846.583 266.009C845.851 264.35 844.813 262.82 843.467 261.421C842.237 260.089 840.699 258.887 838.855 257.814L829.345 252.285L802.907 297.758L771.093 279.261ZM842.414 229.808L863.508 242.072C869.617 245.624 874.989 247.128 879.624 246.584C884.258 246.04 888.05 243.232 890.999 238.16C893.814 233.319 894.311 228.75 892.491 224.453C890.738 220.04 886.807 216.058 880.697 212.506L859.604 200.242L842.414 229.808Z" fill="#4A7D7F"/>
<path d="M918.984 391.422C909.617 383.922 902.79 375.809 898.504 367.082C894.406 358.335 892.952 349.484 894.142 340.531C895.333 331.577 899.22 322.989 905.803 314.767C912.137 306.856 919.396 301.31 927.58 298.127C935.953 294.924 944.491 294.074 953.194 295.576C962.085 297.058 970.433 300.925 978.24 307.175C986.046 313.425 991.467 320.413 994.504 328.14C997.541 335.866 998.153 343.956 996.337 352.41C994.71 360.843 990.688 369.066 984.271 377.08L979.396 383.169L924.44 339.169L934.941 326.054L969.6 353.805L965.477 353.834C969.977 348.214 972.113 343.092 971.886 338.469C971.742 333.742 969.485 329.629 965.113 326.129C961.887 323.545 958.452 322.076 954.808 321.721C951.351 321.344 947.832 322.113 944.249 324.028C940.667 325.942 937.126 329.085 933.626 333.456L932.501 334.861C928.584 339.753 926.094 344.25 925.03 348.352C924.071 352.537 924.517 356.566 926.368 360.44C928.303 364.21 931.561 367.928 936.14 371.595C940.095 374.762 944.665 377.481 949.849 379.753C955.221 382.004 960.488 383.318 965.652 383.695L957.897 407.461C951.691 407.105 945.06 405.467 938.002 402.549C930.944 399.631 924.605 395.922 918.984 391.422Z" fill="#4A7D7F"/>
<ellipse cx="397" cy="514" rx="111" ry="109" fill="#EE9F43"/>
<path d="M293.5 791L267 735.5C344 684 469 716.862 552.5 773.362C636 829.862 762 815.362 826 810.362C877.2 806.362 947 774.695 975.5 759.362C901 929.862 764.5 979.362 641.5 989.862C543.1 998.262 463.667 960.028 434 939.862C453.2 929.062 495.167 941.362 516 948.862C583.2 967.262 619 950.528 628.5 939.862C612.167 945.028 566.8 947.662 516 916.862C465.2 886.062 420 904.028 401 916.862L312 823C345.6 807.8 356.833 812.028 363.5 812.862C376.167 810.362 420.6 816.762 497 862.362C573.4 907.962 636.167 885.028 658 867.862C576 873.462 511.167 838.195 489 819.862C411 758.662 331.5 773 293.5 791Z" fill="#629596"/>
<path d="M810.603 827.223L678.603 873.223C713.103 853.724 749.603 752.723 750.103 668.223C750.503 600.623 734.936 529.39 727.103 502.223L661.103 581.723L656.603 553.223C648.603 562.423 651.269 587.057 653.603 598.223C631.203 602.623 613.936 656.057 608.103 682.223C585.703 667.823 586.103 609.223 589.103 581.723C588.303 523.323 655.436 484.39 689.103 472.223C671.103 464.623 620.269 473.057 597.103 478.223L605.103 456.223C590.703 463.023 583.436 478.057 581.603 484.723L505.603 521.223C501.103 506.223 508.003 464.923 571.603 419.723C635.203 374.523 693.103 414.557 714.103 440.223C705.703 398.623 669.936 375.89 653.103 369.723C672.703 372.123 674.603 368.723 673.103 366.723C659.503 344.723 606.436 330.557 581.603 326.223C619.203 308.223 662.603 311.057 679.603 314.723C748.803 327.923 754.103 397.89 748.103 431.223C769.303 401.223 811.603 396.39 830.103 397.723C899.703 397.323 924.103 463.223 927.603 496.223C901.603 469.823 864.103 460.557 848.603 459.223C844.203 448.823 831.769 445.557 826.103 445.223L833.603 459.223C790.003 450.423 776.103 459.557 774.603 465.223C818.203 472.023 845.769 491.057 854.103 499.723C907.703 559.323 883.103 622.223 864.103 646.223C862.903 623.423 840.936 592.39 830.103 579.723C831.303 557.723 826.269 542.223 823.603 537.223L819.603 562.223C796.403 527.423 769.936 508.723 759.603 503.723C796.803 580.923 809.103 751.557 810.603 827.223Z" fill="#507C7E"/>
<path d="M154.578 922.094L302.256 872.819L322.232 893.842L265.476 1038.81L240.128 1012.13L256.822 973.373L259.071 990.548L202.313 930.812L219.488 934.081L179.926 948.772L154.578 922.094ZM284.2 909.563L228.057 930.905L231.16 920.232L271.248 962.424L260.431 964.977L284.475 909.853L284.2 909.563Z" fill="#4E7D82"/>
<path d="M297.539 1063.5L363.526 938.898L423.62 970.721C437.053 977.835 445.893 986.213 450.141 995.855C454.507 1005.56 454.069 1015.36 448.827 1025.26C444.959 1032.56 439.531 1037.69 432.543 1040.62C425.673 1043.63 418.146 1044.17 409.96 1042.24L411.457 1039.42C416.669 1043.53 420.502 1047.98 422.955 1052.75C425.408 1057.52 426.572 1062.58 426.447 1067.95C426.384 1073.2 424.886 1078.59 421.953 1084.13C418.147 1091.31 413.072 1096.62 406.729 1100.05C400.387 1103.48 393.136 1104.93 384.977 1104.38C376.999 1103.77 368.473 1101.07 359.4 1096.26L297.539 1063.5ZM341.282 1056.12L367.618 1070.06C370.092 1071.37 372.366 1072.35 374.438 1073C376.511 1073.64 378.382 1073.95 380.053 1073.93C381.723 1073.91 383.31 1073.62 384.815 1073.06C386.381 1072.38 387.716 1071.43 388.818 1070.2C390.101 1068.92 391.241 1067.33 392.239 1065.45C393.175 1063.68 393.782 1061.97 394.06 1060.3C394.517 1058.58 394.556 1056.94 394.175 1055.38C393.856 1053.71 393.236 1052.17 392.314 1050.78C391.392 1049.39 390.082 1048.01 388.384 1046.66C386.686 1045.31 384.6 1043.98 382.125 1042.67L355.79 1028.72L341.282 1056.12ZM368.426 1004.86L391.58 1017.12C397.471 1020.24 402.334 1021.46 406.167 1020.77C410.118 1020.15 413.248 1017.66 415.557 1013.3C417.866 1008.94 418.136 1005.01 416.369 1001.51C414.782 997.951 411.043 994.613 405.152 991.493L381.998 979.232L368.426 1004.86Z" fill="#4E7D82"/>
<path d="M460.397 1146.33L483.779 1007.28L550.64 1018.52C566.418 1021.17 577.929 1027.1 585.171 1036.29C592.567 1045.38 595.115 1056.76 592.815 1070.43C591.334 1079.24 588.068 1086.6 583.018 1092.51C578.121 1098.32 571.693 1102.37 563.733 1104.69C555.926 1106.89 546.697 1107.09 536.047 1105.3L538.222 1102.02L547.689 1103.61C553.343 1104.56 558.107 1106.78 561.982 1110.27C565.879 1113.63 568.809 1118.32 570.773 1124.32L585.835 1167.42L545.995 1160.72L529.362 1112.49C528.642 1110.34 527.647 1108.62 526.377 1107.33C525.108 1106.03 523.597 1104.97 521.844 1104.13C520.224 1103.32 518.361 1102.73 516.257 1102.38L505.41 1100.56L496.687 1152.43L460.397 1146.33ZM509.721 1074.92L533.783 1078.96C540.752 1080.13 546.31 1079.65 550.456 1077.51C554.602 1075.37 557.161 1071.4 558.134 1065.62C559.063 1060.09 557.918 1055.64 554.701 1052.26C551.506 1048.75 546.424 1046.41 539.455 1045.24L515.393 1041.19L509.721 1074.92Z" fill="#4E7D82"/>
<path d="M698.78 1159.49C688.191 1160.77 678.319 1160.22 669.166 1157.84C660.013 1155.45 651.875 1151.47 644.751 1145.89C637.744 1140.16 631.982 1133.06 627.466 1124.61C623.082 1116.14 620.241 1106.55 618.941 1095.83C617.626 1084.97 618.086 1074.91 620.32 1065.64C622.687 1056.36 626.596 1048.16 632.047 1041.05C637.63 1033.93 644.59 1028.18 652.925 1023.82C661.244 1019.32 670.698 1016.43 681.287 1015.14C691.876 1013.86 701.747 1014.41 710.9 1016.79C720.038 1019.04 728.102 1022.97 735.093 1028.57C742.216 1034.15 747.97 1041.18 752.354 1049.64C756.854 1057.96 759.762 1067.55 761.077 1078.4C762.409 1089.39 761.891 1099.52 759.524 1108.81C757.29 1118.08 753.389 1126.34 747.821 1133.6C742.37 1140.7 735.485 1146.51 727.166 1151.01C718.831 1155.38 709.369 1158.2 698.78 1159.49ZM695.074 1128.91C702.09 1128.06 707.846 1125.68 712.342 1121.78C716.838 1117.88 720.033 1112.66 721.927 1106.11C723.82 1099.57 724.237 1091.93 723.179 1083.2C722.12 1074.46 719.89 1067.14 716.489 1061.24C713.22 1055.33 708.878 1051.08 703.463 1048.52C698.165 1045.8 692.008 1044.87 684.992 1045.72C678.109 1046.55 672.354 1048.93 667.725 1052.85C663.212 1056.62 660.009 1061.77 658.116 1068.32C656.223 1074.86 655.805 1082.5 656.864 1091.23C657.923 1099.97 660.086 1107.3 663.355 1113.21C666.757 1119.11 671.173 1123.41 676.603 1126.11C682.034 1128.81 688.191 1129.74 695.074 1128.91Z" fill="#4E7D82"/>
<path d="M790.495 1145.53L793.296 989.874L819.778 978.055L937.516 1079.91L903.911 1094.91L872.939 1066.25L889.88 1069.85L814.635 1103.44L823.445 1088.34L824.1 1130.53L790.495 1145.53ZM821.914 1019.15L823.308 1079.2L814.282 1072.71L867.428 1048.99L866.227 1060.04L822.279 1018.99L821.914 1019.15Z" fill="#4E7D82"/>
<path d="M962.956 1054.75L870.62 948.186L914.756 909.942C927.049 899.29 939.363 892.325 951.696 889.049C963.942 885.671 975.781 885.998 987.213 890.029C998.659 893.872 1009.27 901.437 1019.05 912.723C1028.83 924.009 1034.85 935.64 1037.11 947.617C1039.48 959.507 1038.16 971.322 1033.16 983.064C1028.07 994.704 1019.38 1005.85 1007.09 1016.5L962.956 1054.75ZM971.252 1008.13L985.763 995.553C996.343 986.385 1001.97 977.099 1002.64 967.695C1003.33 958.103 999.175 948.117 990.181 937.739C981.1 927.259 971.851 921.777 962.434 921.292C952.929 920.707 942.937 924.955 932.457 934.035L917.947 946.609L971.252 1008.13Z" fill="#4E7D82"/>
</svg>
