<svg width="50" height="50" viewBox="0 0 50 50" fill="none" xmlns="http://www.w3.org/2000/svg">
<path d="M33.3277 47.0742C30.7431 49.6072 27.9212 49.2072 25.2048 48.0074C22.3302 46.7809 19.6929 46.7276 16.66 48.0074C12.8623 49.6605 10.8579 49.1806 8.58986 47.0742C-4.28012 33.6625 -2.38127 13.2385 12.2293 12.4919C15.7897 12.6785 18.2687 14.465 20.3522 14.6249C23.4642 13.985 26.4443 12.1453 29.7673 12.3852C33.7496 12.7052 36.7561 14.305 38.7341 17.1846C30.5058 22.1707 32.4573 33.1293 40 36.1956C38.4967 40.1951 36.5452 44.1679 33.3013 47.1008L33.3277 47.0742ZM20.0885 12.3319C19.6929 6.38599 24.4664 1.47994 29.9519 1C30.7167 7.87913 23.7807 12.9985 20.0885 12.3319Z" fill="white"/>
</svg>
