<svg width="120" height="120" viewBox="0 0 120 120" fill="none" xmlns="http://www.w3.org/2000/svg">
<circle cx="60" cy="60" r="60" fill="#F8A446"/>
<path fill-rule="evenodd" clip-rule="evenodd" d="M60 93.3333C45.8567 93.3333 38.7867 93.3333 34.3933 88.45C30 83.5733 30 75.7133 30 60C30 44.2867 30 36.43 34.3933 31.5467C38.7867 26.6633 45.86 26.6667 60 26.6667C74.14 26.6667 81.2133 26.6667 85.6067 31.5467C90 36.4333 90 44.2867 90 60C90 75.7133 90 83.57 85.6067 88.45C81.2133 93.33 74.14 93.3333 60 93.3333ZM70 40H50C48.45 40 47.6767 40 47.04 40.17C46.1929 40.3973 45.4205 40.8434 44.8003 41.4636C44.1801 42.0838 43.734 42.8562 43.5067 43.7033C43.3333 44.3467 43.3333 45.12 43.3333 46.6667C43.3333 48.2133 43.3333 48.99 43.5033 49.6267C43.7306 50.4738 44.1768 51.2462 44.797 51.8664C45.4171 52.4865 46.1896 52.9327 47.0367 53.16C47.68 53.3333 48.4533 53.3333 50 53.3333H70C71.55 53.3333 72.3233 53.3333 72.96 53.1633C73.8071 52.936 74.5795 52.4899 75.1997 51.8697C75.8199 51.2495 76.266 50.4771 76.4933 49.63C76.6667 48.9867 76.6667 48.2133 76.6667 46.6667C76.6667 45.12 76.6667 44.3433 76.4967 43.7067C76.2694 42.8595 75.8232 42.0871 75.203 41.467C74.5829 40.8468 73.8104 40.4006 72.9633 40.1733C72.3233 40 71.5467 40 70 40ZM50 63.3333C50 64.2174 49.6488 65.0652 49.0237 65.6903C48.3986 66.3155 47.5507 66.6667 46.6667 66.6667C45.7826 66.6667 44.9348 66.3155 44.3096 65.6903C43.6845 65.0652 43.3333 64.2174 43.3333 63.3333C43.3333 62.4493 43.6845 61.6014 44.3096 60.9763C44.9348 60.3512 45.7826 60 46.6667 60C47.5507 60 48.3986 60.3512 49.0237 60.9763C49.6488 61.6014 50 62.4493 50 63.3333ZM60 66.6667C60.8841 66.6667 61.7319 66.3155 62.357 65.6903C62.9821 65.0652 63.3333 64.2174 63.3333 63.3333C63.3333 62.4493 62.9821 61.6014 62.357 60.9763C61.7319 60.3512 60.8841 60 60 60C59.1159 60 58.2681 60.3512 57.643 60.9763C57.0179 61.6014 56.6667 62.4493 56.6667 63.3333C56.6667 64.2174 57.0179 65.0652 57.643 65.6903C58.2681 66.3155 59.1159 66.6667 60 66.6667ZM76.6667 63.3333C76.6667 64.2174 76.3155 65.0652 75.6904 65.6903C75.0652 66.3155 74.2174 66.6667 73.3333 66.6667C72.4493 66.6667 71.6014 66.3155 70.9763 65.6903C70.3512 65.0652 70 64.2174 70 63.3333C70 62.4493 70.3512 61.6014 70.9763 60.9763C71.6014 60.3512 72.4493 60 73.3333 60C74.2174 60 75.0652 60.3512 75.6904 60.9763C76.3155 61.6014 76.6667 62.4493 76.6667 63.3333ZM73.3333 80C74.2174 80 75.0652 79.6488 75.6904 79.0237C76.3155 78.3986 76.6667 77.5507 76.6667 76.6667C76.6667 75.7826 76.3155 74.9348 75.6904 74.3096C75.0652 73.6845 74.2174 73.3333 73.3333 73.3333C72.4493 73.3333 71.6014 73.6845 70.9763 74.3096C70.3512 74.9348 70 75.7826 70 76.6667C70 77.5507 70.3512 78.3986 70.9763 79.0237C71.6014 79.6488 72.4493 80 73.3333 80ZM63.3333 76.6667C63.3333 77.5507 62.9821 78.3986 62.357 79.0237C61.7319 79.6488 60.8841 80 60 80C59.1159 80 58.2681 79.6488 57.643 79.0237C57.0179 78.3986 56.6667 77.5507 56.6667 76.6667C56.6667 75.7826 57.0179 74.9348 57.643 74.3096C58.2681 73.6845 59.1159 73.3333 60 73.3333C60.8841 73.3333 61.7319 73.6845 62.357 74.3096C62.9821 74.9348 63.3333 75.7826 63.3333 76.6667ZM46.6667 80C47.5507 80 48.3986 79.6488 49.0237 79.0237C49.6488 78.3986 50 77.5507 50 76.6667C50 75.7826 49.6488 74.9348 49.0237 74.3096C48.3986 73.6845 47.5507 73.3333 46.6667 73.3333C45.7826 73.3333 44.9348 73.6845 44.3096 74.3096C43.6845 74.9348 43.3333 75.7826 43.3333 76.6667C43.3333 77.5507 43.6845 78.3986 44.3096 79.0237C44.9348 79.6488 45.7826 80 46.6667 80Z" fill="#FEF1D5"/>
</svg>
