<svg width="120" height="120" viewBox="0 0 120 120" fill="none" xmlns="http://www.w3.org/2000/svg">
<circle cx="60" cy="60" r="60" fill="#F8A446"/>
<path d="M56.66 40.826H66.68L77.6687 28.1374C77.9792 27.777 78.3486 27.4909 78.7556 27.2957C79.1626 27.1005 79.5992 27 80.0401 27C80.481 27 80.9176 27.1005 81.3246 27.2957C81.7316 27.4909 82.101 27.777 82.4115 28.1374L91.0287 38.096C91.6508 38.8165 92 39.791 92 40.8068C92 41.8226 91.6508 42.7972 91.0287 43.5176L83.3801 52.3612H56.66V60.0513C56.66 61.0711 56.3081 62.0491 55.6817 62.7702C55.0553 63.4913 54.2058 63.8964 53.32 63.8964C52.4341 63.8964 51.5846 63.4913 50.9582 62.7702C50.3318 62.0491 49.9799 61.0711 49.9799 60.0513V48.5161C49.9799 46.4766 50.6837 44.5206 51.9365 43.0784C53.1892 41.6362 54.8883 40.826 56.66 40.826ZM36.6199 60.0513V75.4315L28.9713 84.2367C28.3492 84.9571 28 85.9317 28 86.9475C28 87.9633 28.3492 88.9378 28.9713 89.6582L37.5885 99.6169C37.899 99.9773 38.2684 100.263 38.6754 100.459C39.0824 100.654 39.519 100.754 39.9599 100.754C40.4008 100.754 40.8374 100.654 41.2444 100.459C41.6514 100.263 42.0208 99.9773 42.3313 99.6169L56.66 83.1216H70.02C70.9059 83.1216 71.7554 82.7165 72.3818 81.9954C73.0082 81.2744 73.3601 80.2963 73.3601 79.2766V75.4315H76.7001C77.5859 75.4315 78.4355 75.0264 79.0618 74.3053C79.6882 73.5842 80.0401 72.6062 80.0401 71.5865V67.7414H83.3801C84.2659 67.7414 85.1155 67.3363 85.7419 66.6152C86.3682 65.8941 86.7201 64.9161 86.7201 63.8964V60.0513H63.34V63.8964C63.34 65.9359 62.6362 67.8919 61.3835 69.3341C60.1307 70.7763 58.4316 71.5865 56.66 71.5865H49.9799C48.2083 71.5865 46.5092 70.7763 45.2565 69.3341C44.0037 67.8919 43.2999 65.9359 43.2999 63.8964V52.3612L36.6199 60.0513Z" fill="#FEF1D5"/>
</svg>
