<svg width="120" height="120" viewBox="0 0 120 120" fill="none" xmlns="http://www.w3.org/2000/svg">
<circle cx="60" cy="60" r="60" fill="#F8A446"/>
<path d="M36.6667 83.3333H83.3333V46.6667H36.6667M46.6667 23.3333V30H73.3333V23.3333H80V30H83.3333C87.0333 30 90 32.9667 90 36.6667V83.3333C90 85.1014 89.2976 86.7971 88.0474 88.0474C86.7971 89.2976 85.1014 90 83.3333 90H36.6667C34.8986 90 33.2029 89.2976 31.9526 88.0474C30.7024 86.7971 30 85.1014 30 83.3333V36.6667C30 34.8986 30.7024 33.2029 31.9526 31.9526C33.2029 30.7024 34.8986 30 36.6667 30H40V23.3333M43.3333 60H60V76.6667H43.3333V60Z" fill="#FEF1D5"/>
</svg>
