<svg width="45" height="45" viewBox="0 0 45 45" fill="none" xmlns="http://www.w3.org/2000/svg">
<path d="M41.2837 24.9337L33.9356 29.0924L27.345 22.5431L33.9881 15.9412L41.2837 20.0699C41.7143 20.3134 42.0725 20.6669 42.3218 21.0941C42.571 21.5214 42.7024 22.0072 42.7024 22.5018C42.7024 22.9965 42.571 23.4823 42.3218 23.9095C42.0725 24.3368 41.7143 24.6902 41.2837 24.9337ZM2.50687 1.73245C2.36838 2.07044 2.29705 2.43218 2.29688 2.79745V42.2043C2.29688 42.6112 2.38125 42.9899 2.52937 43.3293L23.445 22.5412L2.50687 1.73245ZM25.395 20.6043L31.5037 14.5331L6.46875 0.365571C5.93194 0.0577571 5.30716 -0.0604617 4.695 0.0299463L25.395 20.6043ZM25.395 24.4799L4.77 44.9793C5.32875 45.0468 5.9175 44.9493 6.46875 44.6362L31.4512 30.4987L25.395 24.4799Z" fill="white"/>
</svg>
