<svg width="160" height="160" viewBox="0 0 160 160" fill="none" xmlns="http://www.w3.org/2000/svg">
<path d="M26.6667 120C24.7778 120 23.1956 119.36 21.92 118.08C20.6445 116.8 20.0045 115.218 20 113.333C19.9956 111.449 20.6356 109.867 21.92 108.587C23.2045 107.307 24.7867 106.667 26.6667 106.667H133.333C135.222 106.667 136.807 107.307 138.087 108.587C139.367 109.867 140.004 111.449 140 113.333C139.996 115.218 139.356 116.802 138.08 118.087C136.804 119.371 135.222 120.009 133.333 120H26.6667ZM26.6667 86.6667C24.7778 86.6667 23.1956 86.0267 21.92 84.7467C20.6445 83.4667 20.0045 81.8844 20 80C19.9956 78.1156 20.6356 76.5333 21.92 75.2533C23.2045 73.9733 24.7867 73.3333 26.6667 73.3333H133.333C135.222 73.3333 136.807 73.9733 138.087 75.2533C139.367 76.5333 140.004 78.1156 140 80C139.996 81.8844 139.356 83.4689 138.08 84.7533C136.804 86.0378 135.222 86.6756 133.333 86.6667H26.6667ZM26.6667 53.3333C24.7778 53.3333 23.1956 52.6933 21.92 51.4133C20.6445 50.1333 20.0045 48.5511 20 46.6667C19.9956 44.7822 20.6356 43.2 21.92 41.92C23.2045 40.64 24.7867 40 26.6667 40H133.333C135.222 40 136.807 40.64 138.087 41.92C139.367 43.2 140.004 44.7822 140 46.6667C139.996 48.5511 139.356 50.1356 138.08 51.42C136.804 52.7044 135.222 53.3422 133.333 53.3333H26.6667Z" fill="#328890"/>
</svg>
