<svg width="120" height="120" viewBox="0 0 120 120" fill="none" xmlns="http://www.w3.org/2000/svg">
<circle cx="60" cy="60" r="60" fill="#F8A446"/>
<path d="M88.9095 34.0906C90.1652 35.5747 90.3365 37.6868 89.4232 40.4268C88.5099 43.1667 86.9688 45.6213 84.7998 47.7904L77.9075 54.6832L84.757 84.4804C84.8997 85.0227 84.7284 85.4936 84.2433 85.8932L78.7637 90.0032C78.5639 90.1744 78.2928 90.26 77.9503 90.26C77.8362 90.26 77.7363 90.2458 77.6506 90.2172C77.2226 90.1316 76.9229 89.9033 76.7516 89.5322L64.8079 67.7837L53.7202 78.872L55.9891 87.1776C56.1318 87.6628 56.0177 88.1052 55.6467 88.5047L51.537 92.6147C51.2801 92.8716 50.9519 93 50.5524 93H50.4667C50.0386 92.9429 49.6962 92.7574 49.4393 92.4434L41.3484 81.6548L30.5604 73.5633C30.2465 73.3635 30.061 73.0353 30.0039 72.5786C29.9754 72.2076 30.1038 71.8508 30.3892 71.5083L34.4989 67.3556C34.7557 67.0987 35.0839 66.9703 35.4835 66.9703C35.6547 66.9703 35.7689 66.9845 35.826 67.0131L44.131 69.2821L55.2186 58.1938L33.4714 46.2492C33.0719 46.0209 32.8293 45.6784 32.7437 45.2217C32.6866 44.7651 32.815 44.3798 33.129 44.0658L38.6086 38.5858C39.0081 38.2148 39.4362 38.1006 39.8928 38.2434L68.361 45.0505L75.2105 38.2005C77.3795 36.0314 79.8339 34.4902 82.5737 33.5768C85.3135 32.6635 87.4254 32.8348 88.9095 34.0906Z" fill="#FEF1D5"/>
</svg>
