<svg width="120" height="120" viewBox="0 0 120 120" fill="none" xmlns="http://www.w3.org/2000/svg">
<circle cx="60" cy="60" r="60" fill="#F8A446"/>
<path d="M52.5 63.3333C52.5 61.3442 53.2902 59.4366 54.6967 58.03C56.1032 56.6235 58.0109 55.8333 60 55.8333C61.9891 55.8333 63.8968 56.6235 65.3033 58.03C66.7098 59.4366 67.5 61.3442 67.5 63.3333C67.5 65.3225 66.7098 67.2301 65.3033 68.6366C63.8968 70.0432 61.9891 70.8333 60 70.8333C58.0109 70.8333 56.1032 70.0432 54.6967 68.6366C53.2902 67.2301 52.5 65.3225 52.5 63.3333Z" fill="#FEF1D5"/>
<path fill-rule="evenodd" clip-rule="evenodd" d="M33.333 82.3133V35.6467C33.333 36.5307 33.6842 37.3786 34.3093 38.0037C34.9344 38.6288 35.7823 38.98 36.6663 38.98H76.6663C79.3185 38.98 81.862 40.0336 83.7374 41.9089C85.6128 43.7843 86.6663 46.3278 86.6663 48.98V82.3133C86.6663 84.9655 85.6128 87.509 83.7374 89.3844C81.862 91.2598 79.3185 92.3133 76.6663 92.3133H43.333C40.6808 92.3133 38.1373 91.2598 36.2619 89.3844C34.3866 87.509 33.333 84.9655 33.333 82.3133ZM47.4997 63.3333C47.4997 60.0181 48.8166 56.8387 51.1608 54.4945C53.505 52.1503 56.6845 50.8333 59.9997 50.8333C63.3149 50.8333 66.4943 52.1503 68.8385 54.4945C71.1827 56.8387 72.4997 60.0181 72.4997 63.3333C72.4997 66.6485 71.1827 69.828 68.8385 72.1722C66.4943 74.5164 63.3149 75.8333 59.9997 75.8333C56.6845 75.8333 53.505 74.5164 51.1608 72.1722C48.8166 69.828 47.4997 66.6485 47.4997 63.3333ZM50.833 83.3333C50.833 82.6703 51.0964 82.0344 51.5652 81.5656C52.0341 81.0967 52.67 80.8333 53.333 80.8333H66.6663C67.3294 80.8333 67.9653 81.0967 68.4341 81.5656C68.9029 82.0344 69.1663 82.6703 69.1663 83.3333C69.1663 83.9964 68.9029 84.6323 68.4341 85.1011C67.9653 85.5699 67.3294 85.8333 66.6663 85.8333H53.333C52.67 85.8333 52.0341 85.5699 51.5652 85.1011C51.0964 84.6323 50.833 83.9964 50.833 83.3333Z" fill="#FEF1D5"/>
<path opacity="0.5" d="M79.9997 33.3333V39.55C78.9563 39.1833 77.833 38.9833 76.6663 38.9833H36.6663C35.7823 38.9833 34.9344 38.6321 34.3093 38.007C33.6842 37.3819 33.333 36.5341 33.333 35.65V35.41C33.333 33.6333 34.6397 32.1267 36.3997 31.8767L72.3897 26.7333C73.3353 26.5982 74.2989 26.6678 75.2153 26.9375C76.1316 27.2072 76.9793 27.6707 77.701 28.2965C78.4226 28.9224 79.0013 29.696 79.3979 30.565C79.7945 31.434 79.9997 32.3781 79.9997 33.3333Z" fill="#FEF1D5"/>
</svg>
